<?xml version="1.0" encoding="utf-8"?>
<!-- Generator: Adobe Illustrator 23.0.3, SVG Export Plug-In . SVG Version: 6.00 Build 0)  -->
<svg version="1.1" xmlns="http://www.w3.org/2000/svg" xmlns:xlink="http://www.w3.org/1999/xlink" x="0px" y="0px"
	 viewBox="0 0 1024 768" style="enable-background:new 0 0 1024 768;" xml:space="preserve">
<style type="text/css">
	.st0{display:none;}
	.st1{display:inline;fill:none;stroke:#4266A0;stroke-width:20;stroke-linecap:square;}
	.st2{display:inline;fill:none;}
	.st3{display:inline;fill:#3F3F3F;stroke:#000000;stroke-linecap:round;}
	.st4{font-family:'ISOCPEUR';}
	.st5{font-size:350px;}
	.st6{display:inline;fill:none;stroke:#4266A0;stroke-width:20;}
	.st7{display:inline;fill:#FF8585;stroke:#000000;stroke-linecap:round;}
	.st8{stroke:#3F3F3F;stroke-width:20;}
	.st9{fill:#3F3F3F;}
	.st10{fill:none;stroke:#3F3F3F;stroke-width:20;}
	.st11{fill:none;stroke:#4266A0;stroke-width:20;}
	.st12{fill:none;stroke:#4266A0;stroke-width:20;stroke-linecap:square;}
</style>
<g id="Layer_1" class="st0">
	<line class="st1" x1="135" y1="-375" x2="135" y2="-267"/>
	<line class="st1" x1="243" y1="-51" x2="99" y2="-51"/>
	<rect x="351" y="-267" class="st2" width="612" height="234"/>
	<text transform="matrix(1 0 0 1 351 -41.2539)" class="st3 st4 st5">itlab</text>
	<path class="st6" d="M135-267c0,39.8,32.2,72,72,72"/>
	<path class="st6" d="M243-51c39.8,0,72-32.2,72-72"/>
	<path class="st6" d="M315-123c0-39.8-32.2-72-72-72"/>
	<line class="st1" x1="207" y1="-195" x2="243" y2="-195"/>
	<rect x="351" y="282" class="st2" width="612" height="234"/>
	<text transform="matrix(1 0 0 1 351 507.7461)" class="st7 st4 st5">it</text>
	<rect x="648" y="282" class="st2" width="612" height="234"/>
	<text transform="matrix(1 0 0 1 648 507.7461)" class="st7 st4 st5">ab</text>
</g>
<g id="GREY">
	<line class="st8" x1="387" y1="345" x2="387" y2="507"/>
	<circle class="st9" cx="387" cy="300" r="18"/>
	<line class="st10" x1="531" y1="362" x2="486" y2="362"/>
	<path class="st10" d="M684,362h63c14.92,0,27,12.08,27,27v108h-63c-14.92,0-27-12.08-27-27v-18c0-14.92,12.08-27,27-27h63"/>
	<path class="st10" d="M477,281v189c0,14.92,12.08,27,27,27h27"/>
	<path class="st10" d="M837,362h63c14.92,0,27,12.08,27,27v81c0,14.92-12.08,27-27,27h-63V281"/>
</g>
<g id="BLUE">
	<path class="st11" d="M576,282v134v9c0,39.8,32.2,72,72,72"/>
	<path class="st12" d="M135,192v90c0,39.8,32.2,72,72,72h36c39.8,0,72,32.2,72,72s-32.2,72-72,72H90"/>
</g>
</svg>
