<?xml version="1.0" encoding="utf-8"?>
<!-- Generator: Adobe Illustrator 23.0.3, SVG Export Plug-In . SVG Version: 6.00 Build 0)  -->
<svg version="1.1" xmlns="http://www.w3.org/2000/svg" xmlns:xlink="http://www.w3.org/1999/xlink" x="0px" y="0px"
	 viewBox="0 0 873 342" style="enable-background:new 0 0 873 342;" xml:space="preserve">
<style type="text/css">
	.st0{display:none;}
	.st1{display:inline;fill:none;stroke:#4266A0;stroke-width:20;stroke-linecap:square;}
	.st2{display:inline;fill:none;stroke:#4266A0;stroke-width:20;}
	.st3{display:inline;fill:none;}
	.st4{display:inline;fill:#FF8585;stroke:#000000;stroke-linecap:round;}
	.st5{font-family:'ISOCPEUR';}
	.st6{font-size:350px;}
	.st7{stroke:#808080;stroke-width:20;}
	.st8{fill:#808080;stroke:#808080;}
	.st9{fill:none;stroke:#808080;stroke-width:20;}
	.st10{fill:none;stroke:#F7931E;stroke-width:20;}
	.st11{fill:none;stroke:#F7931E;stroke-width:20;stroke-linecap:square;}
</style>
<g id="Layer_1" class="st0">
	<line class="st1" x1="63" y1="-549" x2="63" y2="-441"/>
	<line class="st1" x1="171" y1="-225" x2="27" y2="-225"/>
	<rect x="279" y="-441" class="st3" width="612" height="234"/>
	
		<text transform="matrix(1 0 0 1 279 -215.2539)" class="st5 st6" style="display:inline;fill:#3F3F3F;stroke:#000000;stroke-linecap:round;">itlab</text>
	<path class="st2" d="M63-441c0,39.8,32.2,72,72,72"/>
	<path class="st2" d="M171-225c39.8,0,72-32.2,72-72"/>
	<path class="st2" d="M243-297c0-39.8-32.2-72-72-72"/>
	<line class="st1" x1="135" y1="-369" x2="171" y2="-369"/>
	<rect x="279" y="108" class="st3" width="612" height="234"/>
	<text transform="matrix(1 0 0 1 279 333.7461)" class="st4 st5 st6">it</text>
	<rect x="576" y="108" class="st3" width="612" height="234"/>
	<text transform="matrix(1 0 0 1 576 333.7461)" class="st4 st5 st6">ab</text>
</g>
<g id="GREY">
	<line class="st7" x1="315" y1="171" x2="315" y2="333"/>
	<circle class="st8" cx="315" cy="126" r="18"/>
	<line class="st9" x1="459" y1="188" x2="414" y2="188"/>
	<path class="st9" d="M612,188h63c14.92,0,27,12.08,27,27v108h-63c-14.92,0-27-12.08-27-27v-18c0-14.92,12.08-27,27-27h63"/>
	<path class="st9" d="M405,107v189c0,14.92,12.08,27,27,27h27"/>
	<path class="st9" d="M765,188h63c14.92,0,27,12.08,27,27v81c0,14.92-12.08,27-27,27h-63V107"/>
</g>
<g id="BLUE">
	<path class="st10" d="M504,108v134v9c0,39.8,32.2,72,72,72"/>
	<path class="st11" d="M63,18v90c0,39.8,32.2,72,72,72h36c39.8,0,72,32.2,72,72s-32.2,72-72,72H18"/>
</g>
</svg>
